{
	"accessors" : 
	[
		{
			"bufferView" : 2,
			"byteOffset" : 0,
			"componentType" : 5126,
			"count" : 7372,
			"max" : 
			[
				1,
				1,
				1,
				1
			],
			"min" : 
			[
				0,
				0.006584956776350737,
				0.006584956776350737,
				1
			],
			"name" : "accessor_color_m0-PolyPaper21_-14384",
			"type" : "VEC4"
		},
		{
			"bufferView" : 2,
			"byteOffset" : 117952,
			"componentType" : 5126,
			"count" : 72,
			"max" : 
			[
				1,
				1,
				1,
				1
			],
			"min" : 
			[
				1,
				1,
				1,
				1
			],
			"name" : "accessor_color_m1-PolyGlass24_-14390",
			"type" : "VEC4"
		},
		{
			"bufferView" : 2,
			"byteOffset" : 119104,
			"componentType" : 5126,
			"count" : 10962,
			"max" : 
			[
				1,
				0.6940805315971375,
				0.7226724624633789,
				1
			],
			"min" : 
			[
				0,
				0.006584956776350737,
				0.006584956776350737,
				1
			],
			"name" : "accessor_color_m2-PolyPaper22_-14396",
			"type" : "VEC4"
		},
		{
			"bufferView" : 2,
			"byteOffset" : 294496,
			"componentType" : 5126,
			"count" : 19154,
			"max" : 
			[
				1,
				1,
				1,
				1
			],
			"min" : 
			[
				0.006584956776350737,
				0.006584956776350737,
				0.006584956776350737,
				1
			],
			"name" : "accessor_color_m3-PolyPaper23_-14402",
			"type" : "VEC4"
		},
		{
			"bufferView" : 2,
			"byteOffset" : 600960,
			"componentType" : 5126,
			"count" : 204,
			"max" : 
			[
				0.3488648533821106,
				0.3488648533821106,
				0.3488648533821106,
				1
			],
			"min" : 
			[
				0.3488648533821106,
				0.3488648533821106,
				0.3488648533821106,
				1
			],
			"name" : "accessor_color_m4-PolyPaper22_-14408",
			"type" : "VEC4"
		},
		{
			"bufferView" : 0,
			"byteOffset" : 0,
			"componentType" : 5123,
			"count" : 11022,
			"max" : 
			[
				7371
			],
			"min" : 
			[
				0
			],
			"name" : "accessor_indices_0_m0-PolyPaper21_-14384",
			"type" : "SCALAR"
		},
		{
			"bufferView" : 0,
			"byteOffset" : 22044,
			"componentType" : 5123,
			"count" : 108,
			"max" : 
			[
				71
			],
			"min" : 
			[
				0
			],
			"name" : "accessor_indices_0_m1-PolyGlass24_-14390",
			"type" : "SCALAR"
		},
		{
			"bufferView" : 0,
			"byteOffset" : 22260,
			"componentType" : 5123,
			"count" : 16806,
			"max" : 
			[
				10961
			],
			"min" : 
			[
				0
			],
			"name" : "accessor_indices_0_m2-PolyPaper22_-14396",
			"type" : "SCALAR"
		},
		{
			"bufferView" : 0,
			"byteOffset" : 55872,
			"componentType" : 5123,
			"count" : 28632,
			"max" : 
			[
				19153
			],
			"min" : 
			[
				0
			],
			"name" : "accessor_indices_0_m3-PolyPaper23_-14402",
			"type" : "SCALAR"
		},
		{
			"bufferView" : 0,
			"byteOffset" : 113136,
			"componentType" : 5123,
			"count" : 306,
			"max" : 
			[
				203
			],
			"min" : 
			[
				0
			],
			"name" : "accessor_indices_0_m4-PolyPaper22_-14408",
			"type" : "SCALAR"
		},
		{
			"bufferView" : 1,
			"byteOffset" : 88464,
			"componentType" : 5126,
			"count" : 7372,
			"max" : 
			[
				1,
				1,
				1
			],
			"min" : 
			[
				-1,
				-1,
				-1
			],
			"name" : "accessor_normal_m0-PolyPaper21_-14384",
			"type" : "VEC3"
		},
		{
			"bufferView" : 1,
			"byteOffset" : 177792,
			"componentType" : 5126,
			"count" : 72,
			"max" : 
			[
				1,
				1,
				1
			],
			"min" : 
			[
				-1,
				-1,
				-1
			],
			"name" : "accessor_normal_m1-PolyGlass24_-14390",
			"type" : "VEC3"
		},
		{
			"bufferView" : 1,
			"byteOffset" : 310200,
			"componentType" : 5126,
			"count" : 10962,
			"max" : 
			[
				1,
				1,
				1
			],
			"min" : 
			[
				-1,
				-1,
				-1
			],
			"name" : "accessor_normal_m2-PolyPaper22_-14396",
			"type" : "VEC3"
		},
		{
			"bufferView" : 1,
			"byteOffset" : 671592,
			"componentType" : 5126,
			"count" : 19154,
			"max" : 
			[
				1,
				1,
				1
			],
			"min" : 
			[
				-1,
				-1,
				-1
			],
			"name" : "accessor_normal_m3-PolyPaper23_-14402",
			"type" : "VEC3"
		},
		{
			"bufferView" : 1,
			"byteOffset" : 903888,
			"componentType" : 5126,
			"count" : 204,
			"max" : 
			[
				0.7547067,
				0.7404401,
				0.995273
			],
			"min" : 
			[
				-0.7551199,
				-0.7408221,
				-0.9959699
			],
			"name" : "accessor_normal_m4-PolyPaper22_-14408",
			"type" : "VEC3"
		},
		{
			"bufferView" : 1,
			"byteOffset" : 0,
			"componentType" : 5126,
			"count" : 7372,
			"max" : 
			[
				1.230003,
				1.570002,
				0.7300001
			],
			"min" : 
			[
				-0.1899975,
				1.040002,
				0.03
			],
			"name" : "accessor_position_m0-PolyPaper21_-14384",
			"type" : "VEC3"
		},
		{
			"bufferView" : 1,
			"byteOffset" : 176928,
			"componentType" : 5126,
			"count" : 72,
			"max" : 
			[
				1.180003,
				1.520002,
				0.7200001
			],
			"min" : 
			[
				1.000003,
				1.200002,
				0.26
			],
			"name" : "accessor_position_m1-PolyGlass24_-14390",
			"type" : "VEC3"
		},
		{
			"bufferView" : 1,
			"byteOffset" : 178656,
			"componentType" : 5126,
			"count" : 10962,
			"max" : 
			[
				1.230031,
				1.540002,
				0.8976301
			],
			"min" : 
			[
				-0.1899691,
				0.4600452,
				0.07625814
			],
			"name" : "accessor_position_m2-PolyPaper22_-14396",
			"type" : "VEC3"
		},
		{
			"bufferView" : 1,
			"byteOffset" : 441744,
			"componentType" : 5126,
			"count" : 19154,
			"max" : 
			[
				1.18997,
				1.5599,
				0.819567
			],
			"min" : 
			[
				-0.1700298,
				0.8959,
				0.1519776
			],
			"name" : "accessor_position_m3-PolyPaper23_-14402",
			"type" : "VEC3"
		},
		{
			"bufferView" : 1,
			"byteOffset" : 901440,
			"componentType" : 5126,
			"count" : 204,
			"max" : 
			[
				1.150187,
				1.418179,
				0.243357
			],
			"min" : 
			[
				1.12311,
				1.375135,
				0.2069634
			],
			"name" : "accessor_position_m4-PolyPaper22_-14408",
			"type" : "VEC3"
		}
	],
	"asset" : 
	{
		"copyright" : "Unknown",
		"generator" : "glTF 1-to-2 Upgrader for Google Blocks",
		"version" : "2.0"
	},
	"bufferViews" : 
	[
		{
			"buffer" : 0,
			"byteLength" : 113748,
			"byteOffset" : 0,
			"name" : "ushortBufferView",
			"target" : 34963
		},
		{
			"buffer" : 0,
			"byteLength" : 906336,
			"byteOffset" : 113748,
			"byteStride" : 12,
			"name" : "vec3BufferView",
			"target" : 34962
		},
		{
			"buffer" : 0,
			"byteLength" : 604224,
			"byteOffset" : 1020084,
			"byteStride" : 16,
			"name" : "vec4BufferView",
			"target" : 34962
		}
	],
	"buffers" : 
	[
		{
			"byteLength" : 1624308,
			"name" : "model",
			"uri" : "model.bin"
		}
	],
	"materials" : 
	[
		{
			"alphaMode" : "OPAQUE",
			"doubleSided" : false,
			"name" : "BlocksPaper",
			"pbrMetallicRoughness" : 
			{
				"baseColorFactor" : 
				[
					1,
					1,
					1,
					1
				],
				"metallicFactor" : 0,
				"roughnessFactor" : 0.6
			}
		},
		{
			"alphaMode" : "BLEND",
			"doubleSided" : false,
			"name" : "BlocksGlass",
			"pbrMetallicRoughness" : 
			{
				"baseColorFactor" : 
				[
					0.2,
					0.2,
					1,
					0.3
				],
				"metallicFactor" : 1,
				"roughnessFactor" : 0.4
			}
		},
		{
			"alphaMode" : "OPAQUE",
			"doubleSided" : true,
			"name" : "BlocksGem",
			"pbrMetallicRoughness" : 
			{
				"baseColorFactor" : 
				[
					1,
					0.4,
					1,
					1
				],
				"metallicFactor" : 0,
				"roughnessFactor" : 0.1
			}
		}
	],
	"meshes" : 
	[
		{
			"name" : "mesh_m0-PolyPaper21_-14384",
			"primitives" : 
			[
				{
					"attributes" : 
					{
						"COLOR_0" : 0,
						"NORMAL" : 10,
						"POSITION" : 15
					},
					"indices" : 5,
					"material" : 0,
					"mode" : 4
				}
			]
		},
		{
			"name" : "mesh_m1-PolyGlass24_-14390",
			"primitives" : 
			[
				{
					"attributes" : 
					{
						"COLOR_0" : 1,
						"NORMAL" : 11,
						"POSITION" : 16
					},
					"indices" : 6,
					"material" : 1,
					"mode" : 4
				}
			]
		},
		{
			"name" : "mesh_m2-PolyPaper22_-14396",
			"primitives" : 
			[
				{
					"attributes" : 
					{
						"COLOR_0" : 2,
						"NORMAL" : 12,
						"POSITION" : 17
					},
					"indices" : 7,
					"material" : 0,
					"mode" : 4
				}
			]
		},
		{
			"name" : "mesh_m3-PolyPaper23_-14402",
			"primitives" : 
			[
				{
					"attributes" : 
					{
						"COLOR_0" : 3,
						"NORMAL" : 13,
						"POSITION" : 18
					},
					"indices" : 8,
					"material" : 0,
					"mode" : 4
				}
			]
		},
		{
			"name" : "mesh_m4-PolyPaper22_-14408",
			"primitives" : 
			[
				{
					"attributes" : 
					{
						"COLOR_0" : 4,
						"NORMAL" : 14,
						"POSITION" : 19
					},
					"indices" : 9,
					"material" : 0,
					"mode" : 4
				}
			]
		}
	],
	"nodes" : 
	[
		{
			"matrix" : 
			[
				1,
				0,
				0,
				0,
				0,
				1,
				0,
				0,
				0,
				0,
				1,
				0,
				0,
				0,
				0,
				1
			],
			"mesh" : 4,
			"name" : "node_MeshObject1145418752-PolyPaper22"
		},
		{
			"matrix" : 
			[
				1,
				0,
				0,
				0,
				0,
				1,
				0,
				0,
				0,
				0,
				1,
				0,
				0,
				0,
				0,
				1
			],
			"mesh" : 2,
			"name" : "node_MeshObject1260544-PolyPaper22"
		},
		{
			"matrix" : 
			[
				1,
				0,
				0,
				0,
				0,
				1,
				0,
				0,
				0,
				0,
				1,
				0,
				0,
				0,
				0,
				1
			],
			"mesh" : 0,
			"name" : "node_MeshObject1499186176-PolyPaper21"
		},
		{
			"matrix" : 
			[
				1,
				0,
				0,
				0,
				0,
				1,
				0,
				0,
				0,
				0,
				1,
				0,
				0,
				0,
				0,
				1
			],
			"mesh" : 1,
			"name" : "node_MeshObject2071265280-PolyGlass24"
		},
		{
			"matrix" : 
			[
				1,
				0,
				0,
				0,
				0,
				1,
				0,
				0,
				0,
				0,
				1,
				0,
				0,
				0,
				0,
				1
			],
			"mesh" : 3,
			"name" : "node_MeshObject573339648-PolyPaper23"
		}
	],
	"scene" : 0,
	"scenes" : 
	[
		{
			"extras" : {},
			"name" : "defaultScene",
			"nodes" : 
			[
				2,
				3,
				1,
				4,
				0
			]
		}
	]
}